 <svg
                    width="24"
                    height="24"
                    viewBox="0 0 24 24"
                    fill="none"
                    xmlns="http://www.w3.org/2000/svg"
                  >
                    <path
                      d="M12.391 19.0161C11.9042 19.0161 11.5344 18.8897 11.2818 18.6371C11.0353 18.3844 10.8627 18.064 10.7641 17.6757C10.6717 17.2813 10.6193 16.8715 10.607 16.4463C10.6008 16.0211 10.5977 15.636 10.5977 15.2909C10.5977 14.8472 10.4406 14.4836 10.1263 14.2001C9.8182 13.9105 9.4238 13.7657 8.94313 13.7657C8.16049 13.7657 7.55349 13.553 7.12212 13.1278C6.69075 12.7026 6.47506 12.111 6.47506 11.353C6.47506 10.7676 6.64761 10.2315 6.99271 9.74464C7.3378 9.25781 7.79691 8.86649 8.37002 8.57069C8.94929 8.27489 9.58402 8.127 10.2742 8.127C10.5823 8.127 10.8905 8.17013 11.1986 8.25641C11.5129 8.33652 11.7963 8.41663 12.049 8.49674C12.3078 8.57686 12.5081 8.61691 12.6498 8.61691C12.7731 8.61691 12.8686 8.55221 12.9364 8.42279C13.0042 8.28722 13.0381 8.12391 13.0381 7.93288C13.0381 7.7973 12.9734 7.64632 12.844 7.47994C12.7207 7.30739 12.5636 7.16257 12.3725 7.04548C12.1815 6.92223 11.9874 6.86061 11.7902 6.86061C11.7347 6.86061 11.6916 6.87602 11.6608 6.90683C11.6361 6.93148 11.6176 6.97461 11.6053 7.03624C11.5991 7.17181 11.556 7.28582 11.4759 7.37826C11.4019 7.46453 11.2879 7.50767 11.1339 7.50767C10.9059 7.50767 10.7087 7.45837 10.5423 7.35977C10.3759 7.25501 10.2218 7.15024 10.0801 7.04548C9.94453 6.94072 9.80895 6.88834 9.67338 6.88834C9.5378 6.88834 9.42688 6.94688 9.34061 7.06397C9.25433 7.18106 9.16189 7.31663 9.06329 7.47069C8.97086 7.62475 8.84761 7.76033 8.69355 7.87742C8.54565 7.9945 8.33612 8.05305 8.06498 8.05305C7.81231 8.05305 7.61203 7.98218 7.46414 7.84044C7.31624 7.6987 7.24229 7.51383 7.24229 7.28582C7.24229 7.10094 7.29159 6.93764 7.39019 6.7959C7.48878 6.65417 7.60279 6.50935 7.7322 6.36145C7.86778 6.20739 7.98486 6.02868 8.08346 5.82531C8.18206 5.62195 8.23136 5.36929 8.23136 5.06733C8.23136 4.75921 8.35461 4.45417 8.60111 4.15221C8.84761 3.84408 9.24509 3.59142 9.79355 3.39422C10.342 3.19086 11.0753 3.0861 11.9935 3.07994C13.226 3.07994 14.3815 3.31719 15.4599 3.7917C16.5384 4.26005 17.4874 4.90711 18.307 5.73288C19.1266 6.55865 19.7675 7.51075 20.2297 8.58918C20.6919 9.66145 20.923 10.7984 20.923 12.0001C20.923 12.3514 20.8644 12.6626 20.7473 12.9337C20.6364 13.2049 20.4823 13.4575 20.2851 13.6917C19.9216 13.5315 19.6319 13.2757 19.4162 12.9245C19.2067 12.5732 19.0403 12.2035 18.9171 11.8152C18.7938 11.427 18.686 11.0973 18.5935 10.8262C18.5073 10.5488 18.4056 10.4102 18.2885 10.4102C18.2207 10.4102 18.1653 10.4379 18.1221 10.4934C18.079 10.5488 18.0266 10.6043 17.965 10.6598C17.9034 10.7091 17.8109 10.7337 17.6877 10.7337C17.5459 10.7337 17.3826 10.669 17.1977 10.5396C17.019 10.4102 16.8342 10.2623 16.6431 10.0959C16.4583 9.92335 16.2826 9.77237 16.1162 9.64296C15.956 9.51355 15.8235 9.44884 15.7188 9.44884C15.6017 9.44884 15.4938 9.50431 15.3952 9.61523C15.3028 9.72616 15.2566 9.85557 15.2566 10.0035C15.2566 10.1206 15.3521 10.2469 15.5431 10.3825C15.7342 10.518 15.9529 10.669 16.1994 10.8354C16.4521 10.9956 16.6739 11.1682 16.865 11.353C17.056 11.5318 17.1515 11.7228 17.1515 11.9262C17.1515 12.1911 17.0683 12.4438 16.902 12.6841C16.7417 12.9245 16.5784 13.1371 16.412 13.322C16.2518 13.5068 16.1717 13.6547 16.1717 13.7657C16.1717 13.9998 16.1871 14.2956 16.2179 14.653C16.2549 15.0043 16.1563 15.371 15.9221 15.753C15.8297 15.9071 15.6725 16.1598 15.4507 16.511C15.235 16.8623 14.97 17.232 14.6557 17.6203C14.3414 18.0023 13.9902 18.332 13.6019 18.6093C13.2199 18.8805 12.8162 19.0161 12.391 19.0161ZM14.7204 6.42616C14.819 6.42616 14.9176 6.46005 15.0162 6.52784C15.121 6.58946 15.2566 6.62027 15.423 6.62027C15.5277 6.62027 15.614 6.58022 15.6818 6.5001C15.7496 6.41383 15.7835 6.30907 15.7835 6.18582C15.7835 5.97013 15.6756 5.78834 15.4599 5.64044C15.2442 5.49254 14.9731 5.41859 14.6465 5.41859C14.2644 5.41859 13.9686 5.48022 13.7591 5.60347C13.5496 5.72055 13.4448 5.89002 13.4448 6.11187C13.4448 6.25977 13.491 6.37994 13.5835 6.47237C13.6821 6.55865 13.8022 6.60179 13.944 6.60179C14.0919 6.60179 14.2151 6.57405 14.3137 6.51859C14.4185 6.45697 14.5541 6.42616 14.7204 6.42616ZM12.0028 21.4287C10.7148 21.4287 9.50083 21.1822 8.36077 20.6892C7.22688 20.1962 6.22548 19.5152 5.35657 18.6463C4.48766 17.7774 3.80671 16.776 3.31371 15.6421C2.82072 14.5021 2.57422 13.2881 2.57422 12.0001C2.57422 10.7121 2.82072 9.50122 3.31371 8.36733C3.80671 7.22728 4.48458 6.22279 5.34733 5.35389C6.21624 4.48498 7.21764 3.80403 8.35153 3.31103C9.49159 2.81803 10.7056 2.57153 11.9935 2.57153C13.2815 2.57153 14.4955 2.81803 15.6356 3.31103C16.7756 3.80403 17.7801 4.48498 18.649 5.35389C19.5179 6.22279 20.1989 7.22728 20.6919 8.36733C21.1849 9.50122 21.4314 10.7121 21.4314 12.0001C21.4314 13.2881 21.1849 14.5021 20.6919 15.6421C20.1989 16.776 19.5179 17.7774 18.649 18.6463C17.7801 19.5152 16.7756 20.1962 15.6356 20.6892C14.5017 21.1822 13.2907 21.4287 12.0028 21.4287ZM12.0028 20.1715C13.1182 20.1715 14.1689 19.9558 15.1549 19.5245C16.1409 19.0993 17.0098 18.5107 17.7616 17.7589C18.5134 17.0071 19.1019 16.1382 19.5272 15.1522C19.9585 14.1662 20.1742 13.1155 20.1742 12.0001C20.1742 10.8847 19.9585 9.834 19.5272 8.848C19.1019 7.86201 18.5104 6.9931 17.7524 6.24128C17.0006 5.48946 16.1316 4.90094 15.1456 4.47573C14.1597 4.04436 13.109 3.82868 11.9935 3.82868C10.8781 3.82868 9.82744 4.04436 8.84145 4.47573C7.85545 4.90094 6.98654 5.48946 6.23472 6.24128C5.48906 6.9931 4.90055 7.86201 4.46918 8.848C4.04397 9.834 3.83136 10.8847 3.83136 12.0001C3.83136 13.1155 4.04397 14.1662 4.46918 15.1522C4.90055 16.1382 5.49215 17.0071 6.24397 17.7589C6.99579 18.5107 7.86469 19.0993 8.85069 19.5245C9.83668 19.9558 10.8874 20.1715 12.0028 20.1715Z"
                      fill="black"
                    ></path>
                  </svg>